<svg version="1.1" xmlns="http://www.w3.org/2000/svg" style="display: block;" viewBox="0 0 1112 1056" width="278" height="264" preserveAspectRatio="none">
<path transform="translate(0,0)" fill="rgb(254,254,254)" d="M 935.962 15.3836 C 959.827 13.9522 989.638 30.0762 1004.09 50.6534 C 1040.75 102.854 996.843 181.893 932.047 175.104 C 922.666 174.121 909.322 168.519 898.225 166.599 C 882.918 184.082 866.672 199.536 851.002 216.385 C 836.197 232.304 822.189 248.636 806.459 263.888 C 797.665 272.415 790.284 283.195 781.297 292.199 L 726.003 348.113 C 715.234 358.927 702.731 370.888 692.707 382.24 C 684.266 391.799 673.04 414.388 674.845 427.331 C 675.847 434.512 688.864 451.173 693.082 458.152 C 701.707 472.423 712.112 495.982 713.747 512.414 C 724.792 511.275 747.26 511.874 758.944 511.875 L 843.696 511.891 C 863.793 511.951 883.891 511.91 903.988 511.769 C 915.571 511.576 964.624 508.739 970.285 517.02 C 980.637 532.164 973.998 572.418 971.465 590.606 C 962.98 651.525 942.01 708.288 907.923 759.541 C 898.775 773.431 888.313 792.138 874.859 802.311 C 892.011 815.699 922.098 848.034 938 864.249 C 965.607 852.897 997.038 859.944 1014.62 884.618 C 1036.9 914.429 1030.99 952.718 1000.35 974.369 C 963.346 1000.51 910.538 977.391 901.655 933.746 C 899.056 920.98 902.208 907.883 904.465 895.324 C 886.22 873.436 863.005 858.045 849.434 833.571 C 832.987 841.155 811.331 863.843 794.382 874.618 C 755.639 899.25 679.6 939.206 633.194 936.506 C 631.854 922.325 629.898 882.998 633.483 869.108 C 634.581 864.852 659.851 859.793 666.832 857.585 C 754.223 830.316 828.137 766.657 869.325 685.164 C 879.602 664.832 909.695 579.968 902.97 559.987 C 897.266 557.02 864.27 559.104 854.643 559.168 L 750.675 559.571 C 708.743 559.985 720.628 546.281 705.587 585.31 C 690.288 625.007 655.665 659.655 615.376 673.354 C 609.854 675.232 596.957 677.809 593.452 680.567 C 589.881 687.486 593.56 740.112 591.809 752.07 C 591.146 756.599 590.431 775.137 590.458 780.237 L 591.567 874.546 C 591.823 891.676 592.953 912.071 591.771 928.917 C 590.307 931.62 588.524 934.138 586.459 936.415 C 581.381 942.092 573.069 944.366 565.746 944.49 C 487.818 945.802 380.276 911.413 323.538 859.363 C 335.091 846.05 358.776 821.919 371.813 810.676 C 388.359 818.443 402.742 828.685 418.431 836.602 C 453.877 854.488 505.859 871.492 545.601 872.021 C 538.449 845.749 548.378 689.798 542.465 680.792 C 530.972 673.595 505.048 669.779 492.966 659.56 C 490.514 658.154 480.513 650.725 478.441 651.584 C 468.741 655.869 459.999 666.727 452.56 674.702 C 438.173 690.126 419.371 704.976 406.089 720.992 C 424.458 738.858 446.497 752.131 469.423 763.699 C 475.906 767.463 505.144 774.223 506.24 781.731 C 506.897 786.234 505.248 814.585 502.707 820.898 C 502.272 821.739 500.546 823.217 499.58 822.958 C 454.886 810.972 403.377 784.113 369.461 751.96 C 360.194 768.129 338.863 787.129 325.132 800.764 L 261.37 863.192 C 246.763 877.253 235.081 889.899 219.347 904.141 C 230.599 923.016 230.926 947.378 223.97 967.835 C 209.776 1009.57 162.741 1033.33 120.964 1017.76 C 80.487 1002.27 57.7794 956.566 73.4792 915.422 C 87.803 877.884 123.724 857.215 163.27 865.083 C 171.593 866.739 179.569 869.955 187.553 872.951 C 195.653 867.234 223.074 838.725 231.424 830.312 L 307.827 753.897 C 319.101 742.839 332.368 733.592 341.596 721.147 C 320.912 693.712 302.37 662.645 291.767 629.911 C 266.449 552.658 273.55 468.438 311.447 396.515 C 313.417 392.685 316.963 384.803 320.962 383.526 C 327.042 384.95 333.526 396.18 339.113 400.138 C 343.964 403.575 348.746 406.032 351.95 411.157 C 353.166 417.074 345.832 427.812 342.637 436.259 C 317.702 502.189 315.409 578.533 347.353 642.587 C 351.21 650.32 367.911 685.774 375.33 688.346 C 380.748 686.47 438.111 627.415 448.398 618.171 C 446.418 614.912 444.485 611.625 442.599 608.311 C 418.598 566.194 416.597 514.426 437.42 470.105 C 440.84 462.826 454.537 442.863 455.323 437.608 C 459.64 408.78 443.155 372.204 413.069 364.504 C 395.012 359.957 383.237 369.311 370.372 376.823 C 361.412 366.814 319.389 322.059 309.296 319.415 C 304.324 321.474 279.332 364.847 274.913 373.346 C 227.878 463.812 217.779 560.276 254.977 655.988 C 259.347 667.277 264.516 678.24 270.446 688.794 C 275.425 697.691 286.92 715.664 289.346 724.62 C 266.186 741.125 258.899 751.844 239.913 769.724 C 231.743 764.415 223.368 751.764 218.416 743.402 C 194.217 702.539 176.733 656.843 168.116 610.092 C 149.839 512.708 168.045 412.004 219.263 327.184 C 233.488 303.69 247.49 289.543 261.598 268.982 C 255.434 260.432 243.625 249.344 235.797 241.543 C 224.512 230.329 213.346 218.995 202.301 207.543 C 130.75 239.926 85.2066 144.06 138.85 100.923 C 176.292 70.8139 240.225 99.4697 239.455 148.888 C 239.299 158.89 237.027 167.14 235.623 176.881 C 254.122 197.266 275.942 215.697 293.935 236.736 C 314.154 210.409 369.772 179.569 399.349 164.24 C 412.332 157.511 494.613 127.547 503.679 134.569 C 509.444 143.585 505.344 184.566 506.306 199.595 C 492.403 208.653 472.93 212.479 456.92 217.755 C 424.813 228.335 365.038 262.111 341.247 285.512 C 346.354 288.881 380.282 321.671 380.97 321.525 C 429.251 311.236 472.757 335.305 492.805 379.971 C 495.79 386.622 496.718 402.578 501.063 407.129 C 517.68 399.35 534.877 394.44 548.543 387.91 C 542.843 372.944 543.858 339.571 543.827 322.421 L 543.801 248.496 L 543.916 188.026 C 543.954 170.224 538.823 128.959 565.035 128.094 C 623.724 126.158 717.031 146.123 765.154 180.539 C 759.374 188.814 728.465 226.485 722.119 231.99 C 715.73 229.57 708.548 228.163 702.095 225.624 C 675.935 215.331 649.816 206.132 621.889 201.945 C 612.394 200.522 601.291 198.88 592.086 196.152 C 593.222 219.145 592.314 250.337 592.29 273.833 C 592.25 312.712 592.826 352.955 592.066 391.714 C 606.435 391.846 615.739 396.329 627.51 402.994 C 631.98 400.35 634.567 386.711 637.53 381.412 C 645.568 367.034 661.065 348.915 672.462 337.162 C 694.424 314.513 718.061 292.683 739.843 269.955 C 753.565 255.638 765.335 240.939 779.51 226.336 C 808.984 195.971 841.811 165.808 869.3 133.884 C 841.401 78.3861 874.773 21.909 935.962 15.3836 z M 580.438 634.137 C 635.46 627.488 674.51 577.258 667.387 522.295 C 660.264 467.332 609.7 428.716 554.801 436.312 C 500.566 443.816 462.518 493.636 469.555 547.934 C 476.592 602.231 526.082 640.707 580.438 634.137 z M 182.31 943.952 C 183.149 928.592 173.66 914.552 159.095 909.602 C 153.648 907.751 147.823 907.299 142.156 908.289 C 123.386 911.566 110.883 929.513 114.312 948.257 C 117.742 967 135.79 979.357 154.505 975.776 C 169.983 972.813 181.451 959.687 182.31 943.952 z M 926.917 127.818 C 932.186 128.01 941.344 128.031 946.069 129.298 C 951.94 126.139 956.36 124.089 961.101 119.257 C 985.454 94.4323 963.107 58.3447 930.858 60.0571 C 897.152 78.776 896.582 105.288 926.917 127.818 z"/>
<path transform="translate(0,0)" fill="rgb(254,254,254)" d="M 865.666 259.821 C 872.884 265.089 885.383 281.655 891.213 289.439 C 931.039 341.936 957.886 403.107 969.561 467.959 C 953.602 467.769 937.825 468.846 921.883 468.729 C 915.82 468.888 905.676 470.532 900.76 468.553 C 898.822 465.891 893.483 446.168 891.648 440.936 C 887.03 428.148 882.169 415.449 877.066 402.847 C 868.517 382.153 856.645 363.394 845.162 344.6 C 840.828 337.506 819.282 312.037 820.101 309.417 C 823.005 300.133 858.084 267.552 865.666 259.821 z"/>
<path transform="translate(0,0)" fill="rgb(254,254,254)" d="M 806.57 600.015 C 817.614 598.889 840.781 599.8 852.875 599.988 C 851.366 616.239 843.263 637.029 836.756 651.745 C 810.89 710.236 773.126 754.45 718.432 787.933 C 701.109 798.538 689.853 805.628 670.46 813.049 C 624.673 828.927 631.496 824.306 632.001 778.26 C 638.186 774.19 656.298 768.454 664.656 765.012 C 714.256 744.582 760.507 701.624 785.034 653.88 C 794.072 636.286 798.964 617.359 806.57 600.015 z"/>
<path transform="translate(0,0)" fill="rgb(254,254,254)" d="M 1002.81 246.087 C 1003.97 245.984 1008.01 245.585 1008.76 246.205 C 1015.73 251.972 1021.58 259.466 1029.05 264.725 C 1032.35 267.047 1037.11 268.34 1040.94 269.469 C 1033.29 273.988 1026.9 277.942 1020.34 284.011 C 1016.64 287.431 1011.43 294.374 1006.66 295.138 C 1002.56 293.783 972.675 273.216 969.355 269.609 C 990.204 265.832 988.884 257.089 1002.81 246.087 z"/>
<path transform="translate(0,0)" fill="rgb(254,254,254)" d="M 750.929 27.8106 C 755.616 29.1902 767.301 40.7539 772.242 44.0418 C 776.314 46.7514 778.809 48.1175 783.225 50.3713 C 777.14 53.3799 766.238 58.3983 761.553 62.6593 C 757.06 66.7469 754.437 77.2888 748.085 80.4527 C 734.238 63.8774 733.422 58.2361 711.917 50.0828 C 727.647 44.0548 736.168 33.9818 750.929 27.8106 z"/>
<path transform="translate(0,0)" fill="rgb(254,254,254)" d="M 353.817 976.899 C 362.91 984.814 368.744 988.48 379.232 994.257 C 367.954 999.6 361.355 1005.37 350.701 1010.27 C 349.356 1010.89 344.922 1007.89 343.379 1006.9 C 333.79 1002.98 323.821 998.333 314.403 993.965 C 327.576 988.422 340.557 982.423 353.817 976.899 z"/>
<path transform="translate(0,0)" fill="rgb(254,254,254)" d="M 804.104 393.52 C 808.859 396.732 814.707 406.275 819.981 410.608 C 822.851 412.966 827.838 415.693 828.721 418.463 C 811.127 427.071 817.427 425.803 804.596 438.028 L 802.135 437.517 C 795.24 421.597 788.465 420.004 772.366 419.545 C 779.707 414.554 788.894 410.276 795.337 403.686 C 798.443 400.507 800.424 397.241 804.104 393.52 z"/>
</svg>