<svg version="1.1" xmlns="http://www.w3.org/2000/svg" style="display: block;" viewBox="0 0 1112 1056" width="278" height="264" preserveAspectRatio="none">
<defs>
	<linearGradient id="Gradient1" gradientUnits="userSpaceOnUse" x1="820.458" y1="413.822" x2="815.712" y2="417.181">
		<stop class="stop0" offset="0" stop-opacity="0.921569" stop-color="rgb(0,0,0)"/>
		<stop class="stop1" offset="1" stop-opacity="0.964706" stop-color="rgb(0,0,0)"/>
	</linearGradient>
	<linearGradient id="Gradient2" gradientUnits="userSpaceOnUse" x1="438.533" y1="629.732" x2="451.528" y2="641.412">
		<stop class="stop0" offset="0" stop-opacity="0.933333" stop-color="rgb(0,0,0)"/>
		<stop class="stop1" offset="1" stop-opacity="0.964706" stop-color="rgb(0,0,0)"/>
	</linearGradient>
</defs>
<path transform="translate(0,0)" fill="rgb(0,0,0)" d="M 869.353 132.225 C 848.44 99.642 862.102 50.0468 893.936 29.3208 C 952.936 -9.09113 1031.07 42.1688 1014.46 112.892 C 1009.61 134.292 996.373 152.847 977.711 164.385 C 966.289 171.362 943.123 178.299 930.074 174.752 C 918.628 171.641 908.598 168.246 896.607 167.403 C 883.863 184.282 866.759 198.718 852.653 214.277 C 800.239 272.125 745.454 327.912 690.981 383.728 C 683.469 391.426 671.653 419.35 675.077 427.66 C 685.84 453.786 712.304 480.766 711.96 512.157 L 873.003 512.139 C 900.679 512.108 928.295 512.044 955.984 512.297 C 984.822 512.561 974.359 555.762 972.549 574.45 C 966.374 638.219 946.341 699.615 911.229 753.485 C 902.137 767.578 891.232 786.792 879.073 798.697 C 877.774 799.967 876.44 801.202 875.073 802.399 C 889.755 816.989 905.396 830.735 919.512 845.943 C 926.424 853.39 930.219 858.635 939.185 863.722 C 953.209 858.631 977.43 857.502 990.904 864.652 C 1020.89 880.56 1037.2 917.381 1021.41 949.956 C 1005.85 982.026 968.941 993.585 936.881 978.652 C 921.969 971.707 907.833 956.461 903.184 941.105 C 896.383 921.156 904.636 910.29 903.373 896.166 C 902.723 888.9 866.509 858.143 860.169 850.11 C 856.532 845.502 853.947 838.717 850.31 836.281 C 846.228 835.556 845.634 835.693 841.594 836.555 C 828.017 847.866 807.461 866.207 792.574 875.989 C 756.687 899.569 675.487 939.552 632.665 935.892 C 631.538 917.344 631.951 891.604 632.391 872.637 C 632.432 870.882 633.971 868.583 635.112 867.216 C 645.219 863.218 654.966 862.167 664.722 859.08 C 674.448 856.003 688.242 850.648 697.607 846.581 C 777.58 811.772 841.665 748.345 877.298 668.737 C 888.333 643.427 897.02 611.254 901.412 584.087 C 902.639 576.496 908.167 561.72 898.812 557.169 C 890.386 557.55 881.632 558.738 873.363 558.861 C 831.863 559.482 790.325 558.708 748.827 559.532 C 738.715 559.728 731.13 558.718 721.5 555.617 L 712.802 561.348 C 708.97 581.211 702.557 590.536 693.326 607.643 C 673.194 644.952 637.605 668.302 597.306 679.219 C 596.571 679.418 592.662 681.23 592.673 682.219 C 591.318 694.673 591.913 709.352 591.83 721.873 L 591.909 816.19 C 592.054 834.77 589.868 854.085 590.221 873.3 C 590.536 890.466 593.481 909.916 591.244 926.586 C 590.326 933.429 583.627 939.239 578.405 943.475 C 494.284 950.597 388.819 913.88 324.352 860.077 C 329.78 851.819 364.83 812.856 371.288 813.374 C 385.125 814.482 420.714 840.377 437.928 846.546 C 471.975 858.749 509.769 873.155 545.778 872.07 C 545.695 871.748 545.608 871.427 545.528 871.104 C 540.64 851.416 548.159 684.13 541.935 680.148 C 534.402 675.328 523.499 673.702 515.079 670.487 C 507.883 667.739 500.724 664.64 494.027 660.817 C 489.799 658.404 485.343 654.877 480.841 653.129 C 479.085 652.446 477.146 652.068 475.276 652.486 C 472.662 653.07 470.363 654.886 468.432 656.66 C 463.126 661.534 459.083 667.652 454.101 672.855 C 445.705 681.623 436.554 689.826 427.827 698.273 C 422.446 703.481 412.318 711.094 409.243 717.781 C 408.316 719.795 408.759 721.276 409.62 723.231 C 414.471 734.245 453.997 756.975 466.479 762.679 C 476.199 767.12 486.589 770.018 496.293 774.435 C 498.473 775.427 504.54 778.076 505.58 780.268 C 506.474 782.154 504.208 814.746 503.182 817.426 C 502.581 818.995 501.388 819.994 500.079 820.973 C 493.305 823.254 456.437 808.759 448.152 804.641 C 431.134 796.222 414.876 786.347 399.56 775.127 C 390.36 768.447 378.685 758.973 369.465 753.121 C 355.024 772.637 335.485 789.559 318.442 807.105 C 293.218 833.072 265.961 857.387 240.937 883.542 C 234.73 890.03 226.204 898.068 219.26 903.709 C 252.874 969.452 189.065 1041.96 120.414 1017.74 C 103.174 1011.66 85.3627 995.419 77.2681 979.28 C 67.4157 959.892 65.951 937.311 73.2162 916.813 C 86.6653 877.712 126.441 855.553 167.141 866.139 C 172.09 867.427 183.317 873.704 189.375 870.996 C 201.18 860.864 218.97 841.592 230.037 830.877 C 255.585 806.141 278.967 781.767 304.181 757.062 C 311.228 750.156 336.322 729.906 339.616 723.915 C 339.754 721.756 340.256 720.175 338.943 718.418 C 303.777 671.343 282.234 619.46 278.016 560.487 C 277.349 551.166 275.286 540.644 276.071 530.956 C 279.983 481.511 290.924 427.625 318.412 385.66 C 319.289 384.321 321.491 384.597 322.893 384.579 C 323.756 385.023 350.447 410.316 350.532 410.893 C 351.671 418.69 342.533 435.213 339.771 443.113 C 334.991 456.041 331.249 469.548 328.582 483.048 C 316.774 542.84 323.695 604.166 354.688 657.43 C 359.057 664.939 367.17 687.584 377.13 686.542 C 388.125 680.116 417.59 644.146 423.948 641.833 C 426.432 641.076 428.913 640.305 431.388 639.519 C 431.534 641.501 431.492 644.116 432.428 645.767 C 436.084 649.472 444.75 659.658 448.898 660.13 C 448.608 657.948 447.421 656.466 446.242 654.558 L 446.972 653.605 C 449.678 655.103 452.361 656.643 455.018 658.226 L 455.344 658.07 L 453.266 657.278 L 453.806 655.587 C 451.276 652.108 451.665 653.556 451.327 649.413 C 453.876 648.812 453.773 649.292 455.021 647.69 L 453.817 642.486 L 454.592 641.749 L 454.247 640.333 C 457.181 639.199 457.646 637.908 458.01 634.87 C 456.827 631.314 453.223 627.994 450.576 625.156 C 448.72 621.763 449.201 622.971 449.443 618.806 L 448.182 617.784 C 431.106 590.373 421.924 567.268 423.847 534.778 C 424.58 522.385 423.717 514.594 426.446 502.4 C 431.785 478.548 441.285 462.208 453.803 442.864 C 460.76 432.113 452.958 399.396 445.469 389.723 C 438.042 378.148 425.888 367.573 412.451 364.604 C 393.221 360.356 385.494 369.655 369.47 375.798 C 356.614 361.654 322.969 325.462 306.839 318.564 C 296.973 336.441 285.602 353.056 275.691 371.054 C 221.515 469.288 215.265 589.647 269.986 689.21 C 273.633 695.846 289.86 718.858 286.545 722.87 C 281.012 729.566 244.546 765.629 238.821 767.702 C 218.294 757.029 187.785 682.331 180.154 658.832 C 173.945 639.716 167.767 612.205 165.045 591.798 C 163.411 579.542 163.768 565.808 161.24 552.996 C 158.103 537.1 161.808 519.171 163.511 503.355 C 166.939 436.101 191.554 368.837 228.68 312.957 C 233.274 306.041 259.689 273.464 260.038 268.276 C 256.396 262.154 209.993 214.792 202.545 208.277 C 184.519 212.935 163.417 217.61 146.273 206.998 C 115.209 187.769 106.608 146.58 125.164 116.53 C 153.415 70.7783 226.778 85.518 237.616 136.887 C 240.536 150.726 236.696 162.952 236.621 176.945 C 244.089 187.217 285.762 228.225 294.531 235.726 C 299.897 229.39 327.552 206.582 335.347 201.179 C 376.606 172.579 424.102 151.162 472.745 138.822 C 480.162 136.952 497.162 131.259 503.168 135.297 C 508.969 145.283 504.688 184.794 503.972 197.878 C 503.463 207.186 471.099 211.853 462.936 215.261 C 450.261 220.554 435.684 225.297 423.066 231.155 C 400.989 243.678 357.983 267.632 341.781 286.156 C 355.641 295.632 366.566 311.304 379.652 320.515 C 381.433 321.769 415.008 318.583 424.587 321.266 C 452.141 328.985 475.933 347.342 489.085 373.035 C 490.828 376.821 493.17 380.56 494.45 384.628 C 496.534 391.257 494.986 401.719 500.395 405.865 C 506.921 404.893 513.628 400.256 520.97 397.844 C 529.069 394.915 539.803 395.585 545.878 388.62 C 547.185 387.122 546.281 378.714 546.149 376.528 C 545.537 366.374 544.106 355.958 544.15 345.725 C 544.416 282.855 543.279 219.915 544.9 157.067 C 545.05 151.257 546.769 143.371 548.835 137.975 C 559.085 122.092 591.236 128.505 606.254 130.185 C 628.413 132.663 647.687 134.846 668.861 140.86 C 698.176 150.798 733.496 159.034 759.152 176.379 C 760.591 177.343 761.987 178.371 763.334 179.461 C 756.625 194.87 744.331 204.646 734.527 218.034 C 730.894 222.994 727.409 227.273 722.813 231.376 C 704.671 227.691 689.549 220.255 672.362 214.237 C 651.776 207.028 629.754 202.066 608.073 199.868 C 601.502 199.201 598.072 198.209 592.233 195.065 C 591.526 260.159 591.882 326.516 592.154 391.653 C 604.979 392.787 617.976 396.793 628.529 404.295 C 631.616 396.547 636.689 382.037 641.113 375.565 C 670.72 332.262 713.237 298.708 748.636 260.802 C 770.66 237.218 789.169 214.539 813.075 192.107 C 828.309 177.812 859.815 148.61 869.353 132.225 z M 584.288 634.192 C 639.201 625.332 676.367 573.414 667.053 518.577 C 657.739 463.74 605.515 427.005 550.757 436.773 C 496.637 446.428 460.423 497.912 469.628 552.11 C 478.834 606.308 530.016 642.948 584.288 634.192 z M 111.908 943.202 C 119.399 968.026 130.446 977.378 156.686 975.933 C 173.935 969.765 178.888 958.076 184.673 942.338 C 177.625 929.413 177.098 914.785 158.775 909.496 C 153.96 908.106 145.155 908.348 139.929 908.417 C 121.069 914.492 117.404 926.071 111.908 943.202 z M 903.436 96.2364 C 912.959 121.684 918.028 127.939 945.96 128.915 C 990.227 113.014 971.072 56.8956 929.669 60.2293 C 914.863 69.8319 907.282 78.2459 903.436 96.2364 z"/>
<path transform="translate(0,0)" fill="rgb(0,0,0)" d="M 865.122 261.785 C 873.257 264.205 876.098 272.063 881.125 277.889 C 918.142 320.787 944.663 374.042 959.547 428.59 C 963.051 441.432 967.881 454.643 968.418 467.97 C 955.724 468.897 937.234 468.559 924.248 468.372 C 917.766 467.487 904.016 470.325 898.848 466.084 C 895.587 460.543 895.049 448.493 892.36 441.311 C 879.107 405.908 865.098 374.431 844.43 342.536 C 839.053 334.238 819.764 315.519 820.559 307.718 C 824.539 298.467 856.683 268.1 865.122 261.785 z"/>
<path transform="translate(0,0)" fill="rgb(0,0,0)" d="M 806.794 600.433 C 817.833 599.486 837.008 599.538 848.349 600.465 C 850.791 600.665 850.87 601.324 851.876 602.896 C 852.341 614.226 841.844 639.145 837.021 650.378 C 810.653 711.792 768.704 758.531 711.28 792.363 C 693.946 802.575 687.763 806.899 668.877 814.327 C 660.256 817.399 650.256 819.905 641.347 822.344 L 632.215 819.375 C 632.034 805.068 631.841 791.3 632.283 776.998 C 711.806 751.29 772.896 697.909 799.576 618.918 C 801.43 613.431 803.877 605.199 806.794 600.433 z"/>
<path transform="translate(0,0)" fill="rgb(0,0,0)" fill-opacity="0.984314" d="M 1008.33 244.914 L 1010.13 245.541 C 1017.7 260.12 1027.16 265.509 1042.04 270.057 C 1026.86 275.549 1019.64 282.599 1009.63 295.128 C 1007.11 295.918 1005.09 294.472 1002.05 293.337 C 994.562 289.829 988.222 281.386 982.957 278.706 C 975.851 275.089 971.047 273.663 963.311 269.176 C 996.444 267.38 985.515 252.801 1008.33 244.914 z"/>
<path transform="translate(0,0)" fill="rgb(0,0,0)" fill-opacity="0.984314" d="M 750.415 28.895 C 751.124 28.7325 753.92 29.0321 754.256 29.3605 C 763.54 38.4554 771.894 45.8841 784.292 50.0801 C 772.347 53.6792 760.378 60.9575 754.493 72.214 C 753.041 74.9916 751.239 79.3922 748.983 81.06 L 747.396 79.8469 C 740.71 72.5015 739.259 69.9268 735.001 61.3357 C 722.924 54.4018 721.313 55.1431 711.447 50.5032 L 711.948 49.6506 C 726.393 47.5259 735.459 33.2265 750.415 28.895 z"/>
<path transform="translate(0,0)" fill="rgb(0,0,0)" fill-opacity="0.980392" d="M 353.204 978.356 C 353.277 978.363 375.149 992.584 378.692 994.468 C 368.997 997.805 360.28 1002.51 353.784 1010.42 C 350.509 1010.77 348.111 1009.01 344.733 1007.47 C 339.89 1005.08 315.684 995.69 314.021 994.005 C 315.799 991.859 318.805 992.087 322.165 990.97 C 333.019 987.36 342.044 981.285 353.204 978.356 z"/>
<path transform="translate(0,0)" fill="rgb(0,0,0)" fill-opacity="0.976471" d="M 794.394 407.379 C 797.282 402.686 799.699 397.03 804.773 395.808 C 807.88 397.12 811.905 403.72 816.942 407.924 C 814.075 416.678 816.601 413.864 817.204 423.734 C 812.542 427.233 807.181 437.795 802.7 437.668 C 794.707 420.083 787.376 420.073 769.425 419.087 C 780.105 414.998 784.528 412.116 794.394 407.379 z"/>
<path transform="translate(0,0)" fill="url(#Gradient2)" d="M 448.182 617.784 L 449.443 618.806 C 449.201 622.971 448.72 621.763 450.576 625.156 L 448.469 625.493 C 445.605 631.102 450.922 635.91 454.247 640.333 L 454.592 641.749 L 453.817 642.486 L 455.021 647.69 C 453.773 649.292 453.876 648.812 451.327 649.413 C 450.197 649.495 448.356 647.176 446.795 646.169 C 443.309 643.92 438.027 642.741 434.041 641.687 L 432.834 642.486 L 432.428 645.767 C 431.492 644.116 431.534 641.501 431.388 639.519 C 428.913 640.305 426.432 641.076 423.948 641.833 C 429.887 634.434 441.207 625.714 448.182 617.784 z"/>
<path transform="translate(0,0)" fill="rgb(0,0,0)" fill-opacity="0.913725" d="M 432.428 645.767 L 432.834 642.486 L 434.041 641.687 C 438.027 642.741 443.309 643.92 446.795 646.169 C 448.356 647.176 450.197 649.495 451.327 649.413 C 451.665 653.556 451.276 652.108 453.806 655.587 L 453.266 657.278 L 455.344 658.07 L 455.018 658.226 C 452.361 656.643 449.678 655.103 446.972 653.605 L 446.242 654.558 C 447.421 656.466 448.608 657.948 448.898 660.13 C 444.75 659.658 436.084 649.472 432.428 645.767 z"/>
<path transform="translate(0,0)" fill="url(#Gradient1)" d="M 816.942 407.924 C 821.027 411.722 823.515 413.98 828.116 417.296 L 827.844 418.532 C 824.066 420.231 820.488 421.353 817.204 423.734 C 816.601 413.864 814.075 416.678 816.942 407.924 z"/>
<path transform="translate(0,0)" fill="rgb(0,0,0)" fill-opacity="0.952941" d="M 454.247 640.333 C 450.922 635.91 445.605 631.102 448.469 625.493 L 450.576 625.156 C 453.223 627.994 456.827 631.314 458.01 634.87 C 457.646 637.908 457.181 639.199 454.247 640.333 z"/>
</svg>